<svg xmlns="http://www.w3.org/2000/svg" viewBox="0 0 32 32" fill="none">
  <defs>
    <linearGradient id="bg" x1="0" y1="0" x2="32" y2="32" gradientUnits="userSpaceOnUse">
      <stop offset="0%" stop-color="#7c3aed"/>
      <stop offset="100%" stop-color="#4f46e5"/>
    </linearGradient>
  </defs>
  <rect width="32" height="32" rx="8" fill="url(#bg)"/>
  <path
    stroke="white"
    stroke-linecap="round"
    stroke-linejoin="round"
    stroke-width="2"
    d="M21 21h2.5a2.5 2.5 0 002.5-2.5v-5A2.5 2.5 0 0023.5 11h-15A2.5 2.5 0 006 13.5v5A2.5 2.5 0 008.5 21H11m1.5 5h7a2.5 2.5 0 002.5-2.5v-5a2.5 2.5 0 00-2.5-2.5h-7A2.5 2.5 0 0010 18.5v5A2.5 2.5 0 0012.5 26zM22 11V7.5A2.5 2.5 0 0019.5 5h-7A2.5 2.5 0 0010 7.5V11h12z"
  />
</svg>
